<svg width="118" height="116" viewBox="0 0 118 116" fill="none" xmlns="http://www.w3.org/2000/svg">
<path d="M79.4811 35.2193C78.6015 35.2019 77.7364 34.9913 76.9472 34.6023C76.158 34.2134 75.4641 33.6556 74.9144 32.9686C74.3648 32.2816 73.973 31.4821 73.7668 30.6268C73.5606 29.7715 73.545 28.8813 73.7211 28.0193H73.4811C72.2379 28.0324 71.0131 27.7178 69.9301 27.1073C68.847 26.4968 67.9438 25.6119 67.3112 24.5415C66.6787 23.4711 66.3393 22.253 66.327 21.0098C66.3146 19.7665 66.6299 18.542 67.2411 17.4593C62.223 15.6246 56.7362 15.5169 51.6499 17.1532C46.5636 18.7895 42.1688 22.0763 39.1618 26.4928C36.1548 30.9092 34.7074 36.2028 35.0492 41.5349C35.3909 46.8669 37.5021 51.9325 41.0482 55.929C44.5944 59.9255 49.3728 62.6244 54.6264 63.5981C59.8799 64.5718 65.3081 63.7645 70.051 61.3043C74.7938 58.8441 78.5801 54.8716 80.81 50.0162C83.0398 45.1607 83.5857 39.7 82.3611 34.4993C81.6411 34.9793 80.4411 35.2193 79.4811 35.2193Z" stroke="#BE2490" stroke-width="5.84054" stroke-linecap="round" stroke-linejoin="round"/>
<path d="M59.0811 47.2194C63.0575 47.2194 66.2811 43.9959 66.2811 40.0195C66.2811 36.043 63.0575 32.8195 59.0811 32.8195C55.1047 32.8195 51.8811 36.043 51.8811 40.0195C51.8811 43.9959 55.1047 47.2194 59.0811 47.2194Z" stroke="#BE2490" stroke-width="5.84054" stroke-linecap="round" stroke-linejoin="round"/>
<path d="M43.948 88.8441C43.6573 88.8384 43.3714 88.7687 43.1106 88.6402C42.8497 88.5116 42.6204 88.3273 42.4387 88.1002C42.257 87.8732 42.1275 87.6089 42.0594 87.3262C41.9912 87.0436 41.9861 86.7493 42.0443 86.4644H41.965C41.5541 86.4688 41.1493 86.3648 40.7913 86.163C40.4333 85.9612 40.1348 85.6688 39.9258 85.315C39.7167 84.9612 39.6045 84.5586 39.6004 84.1477C39.5964 83.7368 39.7006 83.3321 39.9026 82.9743C38.2441 82.3679 36.4306 82.3323 34.7495 82.8731C33.0685 83.4139 31.616 84.5002 30.6221 85.9599C29.6282 87.4196 29.1499 89.1692 29.2628 90.9315C29.3758 92.6938 30.0735 94.368 31.2456 95.6889C32.4176 97.0098 33.9969 97.9018 35.7333 98.2236C37.4696 98.5454 39.2637 98.2786 40.8313 97.4655C42.3988 96.6523 43.6502 95.3394 44.3872 93.7346C45.1242 92.1298 45.3046 90.325 44.8999 88.6061C44.6619 88.7648 44.2653 88.8441 43.948 88.8441Z" stroke="#BE2490" stroke-width="1.93036" stroke-linecap="round" stroke-linejoin="round"/>
<path d="M37.2056 92.8104C38.5199 92.8104 39.5853 91.7449 39.5853 90.4307C39.5853 89.1164 38.5199 88.051 37.2056 88.051C35.8914 88.051 34.826 89.1164 34.826 90.4307C34.826 91.7449 35.8914 92.8104 37.2056 92.8104Z" stroke="#BE2490" stroke-width="1.93036" stroke-linecap="round" stroke-linejoin="round"/>
<path d="M19.0008 99.1526C17.6387 99.1526 16.4318 98.7921 15.3802 98.071C14.3286 97.3498 13.5023 96.4034 12.9014 95.2316C12.3005 94.0498 12 92.7828 12 91.4307C12 90.4091 12.1753 89.4226 12.5258 88.4712C12.8764 87.5197 13.3721 86.6734 14.0131 85.9322C14.6541 85.1811 15.4103 84.5852 16.2816 84.1445C17.1529 83.7038 18.1044 83.4835 19.136 83.4835C20.1175 83.4835 21.0139 83.7288 21.8252 84.2196C22.6364 84.7104 23.3475 85.2762 23.9584 85.9172V79.1267C23.9584 78.8163 24.0686 78.5508 24.289 78.3305C24.5093 78.1102 24.7747 78 25.0852 78C25.4057 78 25.6711 78.1102 25.8814 78.3305C26.1018 78.5508 26.2119 78.8163 26.2119 79.1267V98.0409C26.2119 98.3514 26.1018 98.6168 25.8814 98.8371C25.6611 99.0575 25.3957 99.1677 25.0852 99.1677C24.7747 99.1677 24.5193 99.0575 24.319 98.8371C24.1287 98.6168 24.0336 98.3514 24.0336 98.0409L23.9584 96.5987C23.3876 97.1796 22.6815 97.7505 21.8402 98.3113C20.9989 98.8722 20.0524 99.1526 19.0008 99.1526ZM19.0459 96.8992C20.0674 96.8992 20.9438 96.6237 21.6749 96.0729C22.4061 95.522 22.9669 94.8109 23.3575 93.9396C23.7481 93.0682 23.9434 92.1618 23.9434 91.2204C23.9434 90.2789 23.7481 89.3926 23.3575 88.5613C22.9769 87.73 22.4261 87.054 21.705 86.5332C20.9839 86.0023 20.1175 85.7369 19.106 85.7369C18.1345 85.7369 17.2882 86.0174 16.567 86.5782C15.8459 87.1291 15.2851 87.8452 14.8844 88.7265C14.4838 89.5979 14.2835 90.5143 14.2835 91.4758C14.2835 92.4273 14.4788 93.3186 14.8694 94.1499C15.27 94.9712 15.8259 95.6372 16.537 96.148C17.2581 96.6488 18.0944 96.8992 19.0459 96.8992Z" fill="#BE2490"/>
<path d="M48.972 83.4083C49.2825 83.4083 49.5329 83.5185 49.7232 83.7389C49.9235 83.9592 50.0237 84.2246 50.0237 84.5351L50.0988 86.3228C50.4593 85.8822 50.875 85.4415 51.3457 85.0008C51.8264 84.5601 52.3723 84.1946 52.9832 83.9041C53.6042 83.6036 54.2952 83.4534 55.0564 83.4534C56.3885 83.4534 57.4551 83.7939 58.2564 84.475C59.0676 85.156 59.6535 86.0524 60.0141 87.1641C60.3846 88.2658 60.5699 89.4577 60.5699 90.7397L60.5549 98.0259C60.5549 98.3364 60.4447 98.6018 60.2244 98.8221C60.0041 99.0425 59.7386 99.1526 59.4282 99.1526C59.1177 99.1526 58.8523 99.0425 58.6319 98.8221C58.4116 98.5918 58.3014 98.3213 58.3014 98.0109L58.3164 90.7397C58.3164 89.8483 58.2263 89.022 58.046 88.2608C57.8658 87.4997 57.5403 86.8837 57.0695 86.413C56.5988 85.9423 55.9278 85.7069 55.0564 85.7069C53.4239 85.7069 52.192 86.1426 51.3607 87.0139C50.5294 87.8852 50.1138 89.1121 50.1138 90.6946V98.0559C50.1138 98.3664 50.0036 98.6318 49.7833 98.8522C49.5629 99.0725 49.2975 99.1827 48.9871 99.1827C48.6766 99.1827 48.4112 99.0675 48.1908 98.8371C47.9705 98.6168 47.8603 98.3514 47.8603 98.0409L47.8453 84.5501C47.8453 84.2296 47.9505 83.9592 48.1608 83.7389C48.3811 83.5185 48.6515 83.4083 48.972 83.4083Z" fill="#BE2490"/>
<path d="M75.7884 99.2277C75.4779 99.2277 75.2225 99.1176 75.0222 98.8972C74.8319 98.6769 74.7368 98.4115 74.7368 98.101L74.6617 96.3132C74.3111 96.7439 73.8955 97.1846 73.4147 97.6353C72.934 98.076 72.3882 98.4465 71.7772 98.747C71.1663 99.0374 70.4752 99.1827 69.704 99.1827C68.382 99.1827 67.3153 98.8421 66.5041 98.1611C65.6928 97.48 65.1019 96.5837 64.7313 95.472C64.3708 94.3602 64.1905 93.1684 64.1905 91.8964L64.2055 84.6102C64.2055 84.2997 64.3157 84.0343 64.536 83.814C64.7564 83.5936 65.0218 83.4835 65.3323 83.4835C65.6528 83.4835 65.9182 83.5936 66.1285 83.814C66.3488 84.0343 66.459 84.3047 66.459 84.6252L66.444 91.8964C66.444 92.7778 66.5341 93.6041 66.7144 94.3753C66.8947 95.1364 67.2202 95.7524 67.6909 96.2231C68.1716 96.6938 68.8427 96.9292 69.704 96.9292C71.3365 96.9292 72.5684 96.4935 73.3997 95.6222C74.231 94.7508 74.6466 93.5239 74.6466 91.9415V84.5801C74.6466 84.2697 74.7568 84.0043 74.9771 83.7839C75.1975 83.5636 75.4629 83.4534 75.7734 83.4534C76.0939 83.4534 76.3593 83.5636 76.5696 83.7839C76.7899 84.0043 76.9001 84.2747 76.9001 84.5952L76.9151 98.086C76.9151 98.3965 76.805 98.6619 76.5846 98.8822C76.3743 99.1126 76.1089 99.2277 75.7884 99.2277Z" fill="#BE2490"/>
<path d="M82.8643 80.2985C82.8643 79.9881 82.9745 79.7227 83.1948 79.5023C83.4152 79.282 83.6806 79.1718 83.9911 79.1718C84.3015 79.1718 84.5669 79.282 84.7873 79.5023C85.0076 79.7227 85.1178 79.9881 85.1178 80.2985L85.1028 83.6637L88.0323 83.6788C88.3227 83.6788 88.5681 83.7839 88.7684 83.9942C88.9787 84.1946 89.0839 84.4399 89.0839 84.7304C89.0839 85.0208 88.9787 85.2712 88.7684 85.4815C88.5681 85.6818 88.3227 85.782 88.0323 85.782L85.1028 85.767L85.0877 95.1414C85.0877 95.6723 85.1679 96.1029 85.3281 96.4334C85.4884 96.7539 85.8139 96.9142 86.3046 96.9142C86.7453 96.9142 87.1059 96.8341 87.3863 96.6738C87.6767 96.5035 88.0072 96.4184 88.3778 96.4184C88.6883 96.4184 88.9537 96.5286 89.174 96.7489C89.3944 96.9693 89.5046 97.2347 89.5046 97.5451C89.5046 97.9658 89.3243 98.2963 88.9637 98.5367C88.6032 98.777 88.1775 98.9423 87.6868 99.0324C87.206 99.1326 86.7754 99.1827 86.3948 99.1827C85.2129 99.1827 84.3216 98.8071 83.7206 98.0559C83.1297 97.2948 82.8343 96.3132 82.8343 95.1114L82.8493 85.782H80.5357C80.2453 85.782 79.9949 85.6818 79.7846 85.4815C79.5843 85.2712 79.4841 85.0208 79.4841 84.7304C79.4841 84.4399 79.5843 84.1946 79.7846 83.9942C79.9949 83.7839 80.2453 83.6788 80.5357 83.6788H82.8493L82.8643 80.2985Z" fill="#BE2490"/>
<path d="M99.1945 83.3633C100.537 83.3633 101.758 83.6537 102.86 84.2346C103.972 84.8155 104.793 85.6067 105.324 86.6083C105.414 86.7685 105.459 86.9438 105.459 87.1341C105.459 87.4346 105.349 87.6899 105.129 87.9003C104.918 88.1106 104.663 88.2158 104.362 88.2158C104.182 88.2158 103.997 88.1607 103.807 88.0505C103.616 87.9303 103.481 87.7901 103.401 87.6299C103.04 86.9488 102.49 86.433 101.748 86.0825C101.017 85.7219 100.161 85.5416 99.1795 85.5416C98.5585 85.5416 97.8825 85.6268 97.1514 85.797C96.4202 85.9573 95.7893 86.2277 95.2584 86.6083C94.7376 86.9788 94.4772 87.4796 94.4772 88.1106C94.4772 88.6014 94.6876 88.9819 95.1082 89.2524C95.5289 89.5228 96.0497 89.7231 96.6706 89.8533C97.3016 89.9735 97.9376 90.0586 98.5786 90.1087C99.2296 90.1588 99.7854 90.2088 100.246 90.2589C101.158 90.349 102.054 90.5143 102.935 90.7547C103.817 90.995 104.548 91.3907 105.129 91.9415C105.71 92.4924 106 93.2886 106 94.3302C106 95.4519 105.669 96.3733 105.008 97.0945C104.347 97.8055 103.501 98.3314 102.47 98.6719C101.438 99.0024 100.366 99.1677 99.2546 99.1677C97.6922 99.1677 96.275 98.8672 95.003 98.2663C93.7311 97.6553 92.7946 96.7639 92.1937 95.5921C92.1136 95.4519 92.0735 95.2817 92.0735 95.0813C92.0735 94.7809 92.1787 94.5255 92.389 94.3152C92.5993 94.1048 92.8547 93.9997 93.1552 93.9997C93.3455 93.9997 93.5358 94.0598 93.7261 94.18C93.9164 94.2901 94.0516 94.4303 94.1317 94.6006C94.5624 95.4219 95.2234 96.0278 96.1148 96.4184C97.0061 96.799 98.0527 96.9893 99.2546 96.9893C99.9457 96.9893 100.642 96.9092 101.343 96.7489C102.054 96.5787 102.645 96.2982 103.116 95.9076C103.596 95.517 103.837 94.9912 103.837 94.3302C103.837 93.8094 103.621 93.4138 103.191 93.1434C102.76 92.8629 102.219 92.6626 101.568 92.5424C100.917 92.4222 100.256 92.3421 99.5851 92.3021C98.9241 92.262 98.3532 92.2119 97.8725 92.1518C97.0211 92.0517 96.1648 91.8814 95.3035 91.641C94.4522 91.3907 93.7411 90.99 93.1702 90.4392C92.5993 89.8883 92.3139 89.1121 92.3139 88.1106C92.3139 87.2693 92.5192 86.5532 92.9298 85.9623C93.3505 85.3614 93.8963 84.8706 94.5674 84.49C95.2484 84.0994 95.9946 83.814 96.8058 83.6337C97.6171 83.4534 98.4133 83.3633 99.1945 83.3633Z" fill="#BE2490"/>
</svg>
