<svg width="161" height="65" viewBox="0 0 161 65" fill="none" xmlns="http://www.w3.org/2000/svg">
<path d="M18.7666 48.5308C16.6718 48.5308 14.8158 47.9763 13.1985 46.8673C11.5812 45.7583 10.3104 44.3027 9.38626 42.5006C8.46209 40.6831 8 38.7346 8 36.6552C8 35.0841 8.26955 33.5669 8.80865 32.1037C9.34775 30.6404 10.1102 29.3389 11.096 28.1991C12.0818 27.0438 13.2447 26.1274 14.5847 25.4496C15.9248 24.7719 17.388 24.4331 18.9745 24.4331C20.484 24.4331 21.8626 24.8104 23.1102 25.5652C24.3578 26.3199 25.4514 27.1902 26.391 28.176V17.7328C26.391 17.2553 26.5604 16.8472 26.8993 16.5083C27.2382 16.1694 27.6463 16 28.1238 16C28.6167 16 29.0249 16.1694 29.3483 16.5083C29.6872 16.8472 29.8566 17.2553 29.8566 17.7328V46.8211C29.8566 47.2986 29.6872 47.7068 29.3483 48.0456C29.0095 48.3845 28.6013 48.5539 28.1238 48.5539C27.6463 48.5539 27.2536 48.3845 26.9455 48.0456C26.6528 47.7068 26.5065 47.2986 26.5065 46.8211L26.391 44.6031C25.513 45.4965 24.4271 46.3744 23.1333 47.237C21.8395 48.0995 20.3839 48.5308 18.7666 48.5308ZM18.8359 45.0652C20.407 45.0652 21.7547 44.6416 22.8791 43.7944C24.0036 42.9473 24.8661 41.8537 25.4668 40.5136C26.0675 39.1736 26.3679 37.7796 26.3679 36.3318C26.3679 34.8839 26.0675 33.5207 25.4668 32.2423C24.8815 30.9639 24.0344 29.9242 22.9254 29.1232C21.8164 28.3069 20.484 27.8987 18.9283 27.8987C17.4342 27.8987 16.1327 28.33 15.0237 29.1925C13.9147 30.0397 13.0521 31.141 12.436 32.4964C11.8199 33.8365 11.5118 35.2459 11.5118 36.7245C11.5118 38.1878 11.8122 39.5587 12.4129 40.8371C13.029 42.1001 13.8839 43.1244 14.9775 43.91C16.0865 44.6801 17.3726 45.0652 18.8359 45.0652Z" fill="#BE2490"/>
<path d="M64.8596 24.3175C65.3371 24.3175 65.7222 24.487 66.0148 24.8258C66.3229 25.1647 66.4769 25.5729 66.4769 26.0504L66.5924 28.7998C67.1469 28.122 67.7861 27.4443 68.5101 26.7666C69.2494 26.0889 70.0889 25.5267 71.0284 25.08C71.9834 24.6179 73.0462 24.3868 74.2168 24.3868C76.2654 24.3868 77.9058 24.9105 79.138 25.9579C80.3857 27.0053 81.2867 28.3839 81.8412 30.0936C82.4111 31.7879 82.6961 33.6209 82.6961 35.5924L82.673 46.798C82.673 47.2755 82.5036 47.6837 82.1647 48.0225C81.8258 48.3614 81.4177 48.5308 80.9402 48.5308C80.4627 48.5308 80.0545 48.3614 79.7156 48.0225C79.3768 47.6683 79.2074 47.2524 79.2074 46.7749L79.2305 35.5924C79.2305 34.2216 79.0918 32.9508 78.8146 31.7802C78.5373 30.6096 78.0367 29.6623 77.3128 28.9384C76.5889 28.2145 75.5569 27.8525 74.2168 27.8525C71.7062 27.8525 69.8116 28.5225 68.5332 29.8626C67.2547 31.2026 66.6155 33.0895 66.6155 35.5231V46.8442C66.6155 47.3217 66.4461 47.7299 66.1072 48.0687C65.7684 48.4076 65.3602 48.577 64.8827 48.577C64.4052 48.577 63.997 48.3999 63.6582 48.0456C63.3193 47.7068 63.1499 47.2986 63.1499 46.8211L63.1268 26.0735C63.1268 25.5806 63.2885 25.1647 63.612 24.8258C63.9508 24.487 64.3667 24.3175 64.8596 24.3175Z" fill="#BE2490"/>
<path d="M106.101 48.6463C105.623 48.6463 105.23 48.4769 104.922 48.138C104.63 47.7992 104.483 47.391 104.483 46.9135L104.368 44.1641C103.829 44.8264 103.19 45.5042 102.45 46.1973C101.711 46.875 100.871 47.4449 99.9319 47.907C98.9923 48.3537 97.9295 48.577 96.7435 48.577C94.7103 48.577 93.0699 48.0533 91.8223 47.0059C90.5747 45.9585 89.6659 44.58 89.096 42.8703C88.5415 41.1605 88.2642 39.3276 88.2642 37.3714L88.2873 26.1659C88.2873 25.6884 88.4568 25.2802 88.7956 24.9414C89.1345 24.6025 89.5427 24.4331 90.0201 24.4331C90.513 24.4331 90.9212 24.6025 91.2447 24.9414C91.5835 25.2802 91.753 25.6961 91.753 26.189L91.7299 37.3714C91.7299 38.7269 91.8685 39.9976 92.1457 41.1837C92.423 42.3543 92.9236 43.3015 93.6475 44.0255C94.3869 44.7494 95.4188 45.1114 96.7435 45.1114C99.2542 45.1114 101.149 44.4414 102.427 43.1013C103.706 41.7613 104.345 39.8744 104.345 37.4408V26.1197C104.345 25.6422 104.514 25.234 104.853 24.8951C105.192 24.5563 105.6 24.3868 106.078 24.3868C106.571 24.3868 106.979 24.5563 107.302 24.8951C107.641 25.234 107.81 25.6499 107.81 26.1428L107.834 46.8904C107.834 47.3679 107.664 47.7761 107.325 48.1149C107.002 48.4692 106.594 48.6463 106.101 48.6463Z" fill="#BE2490"/>
<path d="M116.983 19.535C116.983 19.0575 117.152 18.6493 117.491 18.3104C117.83 17.9716 118.238 17.8021 118.716 17.8021C119.193 17.8021 119.601 17.9716 119.94 18.3104C120.279 18.6493 120.448 19.0575 120.448 19.535L120.425 24.7103L124.931 24.7334C125.377 24.7334 125.755 24.8951 126.063 25.2186C126.386 25.5267 126.548 25.904 126.548 26.3507C126.548 26.7974 126.386 27.1825 126.063 27.5059C125.755 27.814 125.377 27.968 124.931 27.968L120.425 27.9449L120.402 42.362C120.402 43.1783 120.525 43.8406 120.772 44.3489C121.018 44.8418 121.519 45.0883 122.274 45.0883C122.951 45.0883 123.506 44.9651 123.937 44.7186C124.384 44.4568 124.892 44.3258 125.462 44.3258C125.94 44.3258 126.348 44.4953 126.687 44.8341C127.025 45.173 127.195 45.5812 127.195 46.0587C127.195 46.7056 126.918 47.2139 126.363 47.5835C125.809 47.9532 125.154 48.2074 124.399 48.346C123.66 48.5 122.998 48.577 122.412 48.577C120.595 48.577 119.224 47.9994 118.3 46.8442C117.391 45.6736 116.937 44.1641 116.937 42.3158L116.96 27.968H113.402C112.955 27.968 112.57 27.814 112.246 27.5059C111.938 27.1825 111.784 26.7974 111.784 26.3507C111.784 25.904 111.938 25.5267 112.246 25.2186C112.57 24.8951 112.955 24.7334 113.402 24.7334H116.96L116.983 19.535Z" fill="#BE2490"/>
<path d="M142.097 24.2482C144.161 24.2482 146.04 24.6949 147.735 25.5883C149.444 26.4816 150.707 27.6985 151.524 29.2387C151.662 29.4852 151.732 29.7547 151.732 30.0474C151.732 30.5095 151.562 30.9023 151.223 31.2257C150.9 31.5492 150.507 31.7109 150.045 31.7109C149.768 31.7109 149.483 31.6262 149.19 31.4568C148.898 31.2719 148.69 31.0563 148.566 30.8098C148.012 29.7624 147.165 28.9692 146.025 28.4301C144.9 27.8756 143.584 27.5983 142.074 27.5983C141.119 27.5983 140.079 27.7293 138.955 27.9911C137.831 28.2376 136.86 28.6534 136.044 29.2387C135.243 29.8087 134.842 30.5788 134.842 31.5492C134.842 32.3039 135.166 32.8892 135.813 33.3051C136.46 33.721 137.261 34.029 138.216 34.2293C139.186 34.4141 140.164 34.545 141.15 34.622C142.151 34.6991 143.006 34.7761 143.714 34.8531C145.116 34.9917 146.495 35.2459 147.85 35.6155C149.206 35.9852 150.33 36.5936 151.223 37.4408C152.117 38.2879 152.563 39.5124 152.563 41.1143C152.563 42.8395 152.055 44.2565 151.039 45.3655C150.022 46.4591 148.72 47.2678 147.134 47.7915C145.547 48.2998 143.899 48.5539 142.19 48.5539C139.787 48.5539 137.607 48.0918 135.651 47.1677C133.695 46.2281 132.255 44.8572 131.331 43.0551C131.207 42.8395 131.146 42.5776 131.146 42.2696C131.146 41.8075 131.307 41.4147 131.631 41.0912C131.954 40.7678 132.347 40.606 132.809 40.606C133.102 40.606 133.395 40.6985 133.687 40.8833C133.98 41.0527 134.188 41.2684 134.311 41.5302C134.973 42.7933 135.99 43.7251 137.361 44.3258C138.732 44.9111 140.341 45.2038 142.19 45.2038C143.252 45.2038 144.323 45.0806 145.401 44.8341C146.495 44.5723 147.403 44.141 148.127 43.5403C148.867 42.9396 149.236 42.1309 149.236 41.1143C149.236 40.3134 148.905 39.705 148.243 39.2891C147.581 38.8578 146.749 38.5498 145.748 38.3649C144.746 38.1801 143.73 38.0569 142.698 37.9953C141.681 37.9337 140.803 37.8566 140.064 37.7642C138.755 37.6102 137.438 37.3483 136.113 36.9787C134.804 36.5936 133.71 35.9775 132.832 35.1303C131.954 34.2832 131.515 33.0895 131.515 31.5492C131.515 30.2553 131.831 29.154 132.463 28.2453C133.11 27.3211 133.949 26.5664 134.981 25.981C136.028 25.3803 137.176 24.9414 138.424 24.6641C139.671 24.3868 140.896 24.2482 142.097 24.2482Z" fill="#BE2490"/>
<path d="M57.1332 32.6772C56.686 32.6684 56.2463 32.5613 55.8452 32.3636C55.4441 32.1659 55.0913 31.8824 54.8119 31.5332C54.5326 31.184 54.3334 30.7776 54.2286 30.3429C54.1238 29.9081 54.1159 29.4557 54.2054 29.0175H54.0834C53.4515 29.0241 52.8289 28.8643 52.2784 28.554C51.7279 28.2436 51.2688 27.7938 50.9473 27.2498C50.6258 26.7057 50.4532 26.0865 50.447 25.4546C50.4407 24.8227 50.601 24.2002 50.9116 23.6499C48.361 22.7174 45.572 22.6626 42.9867 23.4943C40.4014 24.3261 38.1676 25.9967 36.6391 28.2416C35.1106 30.4864 34.375 33.1772 34.5487 35.8874C34.7224 38.5976 35.7955 41.1724 37.598 43.2038C39.4005 45.2352 41.8293 46.6071 44.4996 47.102C47.17 47.5969 49.9291 47.1866 52.3399 45.9361C54.7506 44.6856 56.6752 42.6664 57.8086 40.1984C58.942 37.7304 59.2195 34.9548 58.597 32.3112C58.2311 32.5552 57.6211 32.6772 57.1332 32.6772Z" stroke="#BE2490" stroke-width="2.96871" stroke-linecap="round" stroke-linejoin="round"/>
<path d="M46.764 38.7767C48.7852 38.7767 50.4237 37.1382 50.4237 35.117C50.4237 33.0958 48.7852 31.4573 46.764 31.4573C44.7428 31.4573 43.1042 33.0958 43.1042 35.117C43.1042 37.1382 44.7428 38.7767 46.764 38.7767Z" stroke="#BE2490" stroke-width="2.96871" stroke-linecap="round" stroke-linejoin="round"/>
</svg>
