<svg width="25" height="25" viewBox="0 0 25 25" fill="none" xmlns="http://www.w3.org/2000/svg">
<path d="M13.0767 3.61194C13.0853 3.61196 13.0945 3.61198 13.1043 3.612L13.2105 3.61233C14.4432 3.61686 20.6909 3.66215 22.3754 4.11501C23.408 4.39198 24.2212 5.20821 24.4971 6.24431C24.6491 6.81356 24.755 7.57015 24.8288 8.34828L24.8431 8.50415C24.8547 8.63419 24.8655 8.76453 24.8754 8.89439L24.8869 9.04994C24.9855 10.4211 24.997 11.7042 24.9984 11.9849L24.9985 12.0228C24.9985 12.0259 24.9985 12.031 24.9985 12.031V12.0522C24.9985 12.0522 24.9985 12.0573 24.9985 12.0604L24.9984 12.0983C24.997 12.3896 24.9846 13.7605 24.8754 15.1889L24.8631 15.3449L24.85 15.5011C24.7757 16.3599 24.6643 17.2128 24.4971 17.8389C24.2212 18.875 23.408 19.6914 22.3754 19.9682C20.6347 20.4363 14.0216 20.4691 13.1043 20.4714L13.0337 20.4715C13.0279 20.4716 13.0228 20.4716 13.0184 20.4716L12.9896 20.4716C12.9896 20.4716 12.983 20.4716 12.9786 20.4716L12.8927 20.4714C12.4291 20.4702 10.5108 20.4613 8.50194 20.3923L8.2451 20.3832C8.20225 20.3816 8.15938 20.38 8.11651 20.3784L7.85937 20.3682L7.60282 20.3573C5.93856 20.2843 4.35178 20.1645 3.62184 19.9682C2.5892 19.6914 1.77606 18.875 1.50007 17.8389C1.33287 17.2128 1.2214 16.3599 1.14709 15.5011L1.13399 15.3449L1.12167 15.1889C1.01636 13.8124 1.00107 12.4894 0.998847 12.1343L0.998582 12.0835C0.998564 12.0789 0.998548 12.0747 0.998535 12.0708V12.0124C0.998548 12.0085 0.998564 12.0043 0.998582 11.9997L0.998847 11.9489C1.00086 11.6273 1.01359 10.5119 1.09421 9.28177L1.10464 9.12745C1.10644 9.10165 1.10827 9.07581 1.11013 9.04994L1.12167 8.89439C1.13161 8.76453 1.14235 8.63419 1.15395 8.50415L1.16829 8.34828C1.24213 7.57015 1.34807 6.81356 1.50007 6.24431C1.77606 5.20821 2.5892 4.39198 3.62184 4.11501C4.35178 3.91877 5.93856 3.79906 7.60282 3.72604L7.85937 3.71517L8.11651 3.70502C8.15938 3.70338 8.20225 3.70177 8.2451 3.7002L8.50194 3.69106C10.3826 3.6265 12.1839 3.61455 12.7865 3.61233L12.8927 3.612C12.9026 3.61198 12.9118 3.61196 12.9203 3.61194H13.0767ZM10.5986 8.42873V15.6545L16.8337 12.0418L10.5986 8.42873Z" fill="#BE2490"/>
</svg>
